<?xml version="1.0" encoding="iso-8859-1"?>
<!-- Generator: Adobe Illustrator 19.0.0, SVG Export Plug-In . SVG Version: 6.00 Build 0)  -->
<svg version="1.1" id="Capa_1" xmlns="http://www.w3.org/2000/svg" xmlns:xlink="http://www.w3.org/1999/xlink" x="0px" y="0px"
	 viewBox="0 0 512 512" style="enable-background:new 0 0 512 512;" xml:space="preserve">
	C392.453,512,503.956,405.238,511.571,270.692z"/>
	<rect x="92.14" y="178.98" width="327.71" height="219.36"/>
	<rect x="256.17" y="178.98" width="163.69" height="219.36"/>
	<path style="fill:#808080;" d="M419.856,398.333L297.532,283.901c-23.372-21.864-59.693-21.864-83.065,0L92.144,398.333H419.856z"/>
	<path style="fill:#808080;" d="M297.532,283.901C285.89,273.01,271.034,267.548,256,267.507v130.827h163.856L297.532,283.901z"/>
	<path style="fill:#C0C0C0;" d="M419.856,178.979L419.856,178.979v-0.002h-0.002L301.488,68.247
		c-25.598-23.946-65.378-23.946-90.976,0L92.145,178.977h-0.001l0.001,0.001l-0.001,0.001h0.002l118.367,110.73
		c25.598,23.946,65.378,23.946,90.976,0L419.856,178.979L419.856,178.979z"/>
	<path style="fill:#C0C0C0;" d="M419.856,178.978h-0.002L301.488,68.247C288.732,56.315,272.456,50.332,256,50.291v257.374
		c16.456-0.041,32.733-6.023,45.488-17.956L419.856,178.978l0.001,0.001v-0.001H419.856z"/>
	<path d="M301.179,262.828L256,288.781l-45.179-25.953c-16.387-9.413-26.491-26.87-26.491-45.768v-82.905
		L256,101.219l71.67,32.936v82.905C327.67,235.959,317.566,253.415,301.179,262.828z"/>
	<path d="M256,101.219v187.562l45.179-25.953c16.387-9.413,26.491-26.87,26.491-45.768v-82.905L256,101.219z"
		/>
	<polygon style="fill:#FFFFFF;" points="242.583,233.678 206.911,198.005 224.589,180.328 242.583,198.322 287.411,153.495 
		305.089,171.172 "/>
	<polygon style="fill:#EBEBF0;" points="287.411,153.495 256,184.903 256,220.259 305.089,171.172 "/>
</svg>
