<?xml version="1.0"?>
<svg width="125" height="60" xmlns="http://www.w3.org/2000/svg" xmlns:svg="http://www.w3.org/2000/svg">
 <g class="layer">
  <title>Layer 1</title>
  <g id="svg_1">
   <g id="svg_2">
    <path d="m49.663727,22.638733c0.138158,0.961396 1.435796,2.987013 1.905676,3.793608c6.828236,11.725544 8.574115,15.076101 10.264112,17.823186c1.252695,2.033484 3.406627,4.258854 6.69198,4.080453c3.088222,-0.164353 4.804377,-2.46895 6.129837,-4.732247c0.031864,-0.054503 11.667568,-20.27837 11.30208,-19.636409c1.449826,-2.54621 -0.37286,-5.33038 -2.484465,-4.842378c-1.326887,0.304545 -1.902822,1.703092 -2.585289,2.93251c-0.034718,0.062651 -10.296452,17.916179 -10.250558,17.836953c-0.569753,0.98359 -1.492153,2.784171 -3.038048,2.341119c-1.153536,-0.330392 -1.948479,-2.02337 -2.517756,-3.029717c-0.159322,-0.280946 -8.836639,-15.401998 -10.251509,-17.83021c-0.645371,-1.101307 -1.356849,-2.632741 -3.104392,-2.259364c-1.248891,0.26437 -2.331802,1.692697 -2.061668,3.522495l0,0z" id="svg_3"/>
    <path d="m1.775476,22.555854c0.122939,1.049894 1.427949,3.000218 1.888317,3.805689l8.201968,14.257706c2.032895,3.602565 4.013952,7.922946 8.679933,7.724598c4.305011,-0.182896 6.081565,-4.449054 8.28044,-8.287613c9.804933,-17.118013 9.968059,-16.728903 9.771404,-18.363164c-0.182625,-1.521039 -1.367787,-2.85244 -2.904408,-2.592566c-1.863349,0.31494 -1.557784,1.494068 -10.832676,17.141612c-2.625952,4.446525 -3.231612,6.403311 -5.039079,6.014483c-1.233434,-0.262122 -1.93112,-1.916049 -2.587905,-3.025222c-11.449036,-19.27708 -10.831963,-20.576734 -13.349243,-20.128345c-1.239855,0.220261 -2.316107,1.642408 -2.108751,3.452821l0,0z" id="svg_4"/>
    <path d="m43.78714,8.491158c-0.435162,0.204809 -0.707911,0.656851 -1.005866,1.006628l-1.84385,2.163281c-1.198954,1.43198 -0.214965,1.993871 1.285511,3.774785c0.324112,0.3863 0.59377,0.695059 0.921211,1.079955c1.200381,1.421585 1.636494,0.377872 3.218533,-1.480302c2.180565,-2.568404 2.11541,-2.036855 -1.282657,-6.015606c-0.285352,-0.337135 -0.668437,-0.824294 -1.292882,-0.52874l0,0z" id="svg_5"/>
   </g>
   <g id="svg_6">
    <path d="m70.457328,42.235529c1.545895,0.44277 2.468057,-1.357529 3.038048,-2.3414c11.671373,-20.145763 11.00793,-19.555216 11.889192,-20.289326c-0.530279,-0.438837 -1.204423,-0.643646 -1.911621,-0.480136c-1.326887,0.304545 -1.902822,1.703092 -2.585289,2.932791c-0.045419,0.079227 -10.289318,17.904099 -10.250558,17.836953c-0.284639,0.491093 -0.657023,1.186152 -1.151158,1.703654c0.29201,0.302297 0.614458,0.535201 0.971386,0.637465z" fill="#808080" id="svg_7"/>
    <path d="m64.691791,44.255528c-1.240092,-2.015784 -2.899414,-5.030611 -4.102173,-7.131241c-7.657421,-13.286477 -7.937304,-13.579785 -8.067615,-14.485553c-0.193802,-1.31314 0.310558,-2.416413 1.071497,-3.034212c-0.462984,-0.41889 -1.051522,-0.66247 -1.867867,-0.488002c-1.248891,0.26437 -2.331802,1.692697 -2.061668,3.522495c0.135067,0.940606 0.535035,1.415404 8.067615,14.485553c1.202759,2.10063 2.862081,5.115457 4.102173,7.131241c1.252695,2.033484 3.406627,4.258854 6.69198,4.080453c0.375713,-0.019947 0.730501,-0.072765 1.067217,-0.152272c-2.298035,-0.531268 -3.892439,-2.291111 -4.901159,-3.928462z" fill="#808080" id="svg_8"/>
    <path d="m22.679651,42.2566c1.770609,0.380962 1.904963,-0.501488 9.144343,-13.146286c5.244294,-9.202653 5.090918,-9.012453 5.678981,-9.511693c-0.491281,-0.404843 -1.113586,-0.615552 -1.809607,-0.497836c-1.340441,0.226442 -1.914474,1.583128 -2.634275,2.872949c-0.162888,0.289374 -10.707597,18.856785 -11.446896,19.632195c0.309369,0.321964 0.65845,0.563858 1.067454,0.65067z" fill="#808080" id="svg_9"/>
    <path d="m14.724037,40.618968c-9.908135,-17.223649 -9.975193,-17.079523 -10.090285,-18.063114c-0.146005,-1.274088 0.3448,-2.353481 1.07982,-2.959481c-0.457752,-0.404562 -1.03345,-0.635218 -1.829106,-0.493621c-1.240092,0.220542 -2.316345,1.642408 -2.108751,3.453102c0.115092,0.984152 0.189521,0.852389 10.090285,18.063114c2.032895,3.602565 4.013952,7.922946 8.679933,7.724598c0.397115,-0.016857 0.772115,-0.069113 1.128567,-0.151711c-3.464649,-0.792266 -5.188889,-4.451021 -6.950462,-7.572888z" fill="#808080" id="svg_10"/>
    <path d="m44.836046,15.435851c-1.500476,-1.780914 -2.484703,-2.343086 -1.285511,-3.774785l1.844087,-2.163281c0.015694,-0.018542 0.031151,-0.038209 0.046845,-0.057032c-0.116281,-0.134854 -0.235891,-0.273922 -0.361446,-0.420856c-0.285352,-0.337135 -0.668437,-0.824294 -1.292645,-0.52874c-0.435162,0.204809 -0.707911,0.656851 -1.005866,1.006628l-1.84385,2.163281c-1.198954,1.431699 -0.214965,1.993871 1.285511,3.774785c0.324112,0.3863 0.59377,0.695059 0.921211,1.079955c0.928583,1.099902 1.401792,0.720906 2.300175,-0.366072c-0.200698,-0.233466 -0.392835,-0.456817 -0.608513,-0.713883z" fill="#808080" id="svg_11"/>
   </g>
   <path d="m44.204229,48.343566l-0.152188,0c-1.383957,0 -2.516329,-1.337863 -2.516329,-2.972966l0,-23.323819c0,-1.635103 1.132372,-2.972966 2.516329,-2.972966l0.152188,0c1.383957,0 2.516329,1.337863 2.516329,2.972966l0,23.323819c-0.000238,1.635103 -1.132372,2.972966 -2.516329,2.972966z" id="svg_12"/>
   <path d="m44.128135,45.280698l0,-23.143733c0,-1.126873 0.523621,-2.114396 1.296212,-2.646226c-0.382134,-0.262965 -0.824192,-0.416361 -1.296212,-0.416361c-1.425809,0 -2.592423,1.378319 -2.592423,3.062868l0,23.143733c0,1.68455 1.166614,3.062868 2.592423,3.062868c0.47202,0 0.914078,-0.153396 1.296212,-0.416361c-0.772828,-0.532392 -1.296212,-1.519915 -1.296212,-2.646788z" fill="#808080" id="svg_13"/>
   <path d="m110.954724,18.57598l-12.126747,0c-6.928585,0 -12.545264,6.635934 -12.545264,14.821845s5.616679,14.821845 12.545264,14.821845l12.126747,0c6.928585,0 12.545264,-6.635934 12.545264,-14.821845s-5.616679,-14.821845 -12.545264,-14.821845zm-0.03876,24.004832l-12.048989,0c-4.292646,0 -7.772751,-4.111357 -7.772751,-9.183268c0,-5.071629 3.479868,-9.183268 7.772751,-9.183268l12.048989,0c4.292646,0 7.772751,4.111357 7.772751,9.183268c0,5.07191 -3.480106,9.183268 -7.772751,9.183268z" id="svg_14"/>
   <g id="svg_15">
    <path d="m110.915964,42.580811l2.409084,0c4.292646,0 7.772751,-4.111357 7.772751,-9.183268c0,-5.071629 -3.479868,-9.183268 -7.772751,-9.183268l-2.409084,0c4.292646,0 7.772751,4.111357 7.772751,9.183268c-0.000238,5.07191 -3.480106,9.183268 -7.772751,9.183268z" fill="#808080" id="svg_16"/>
    <path d="m88.692035,33.397825c0,-8.185911 5.616679,-14.821845 12.545264,-14.821845l-2.409084,0c-6.928585,0 -12.545264,6.635934 -12.545264,14.821845s5.616679,14.821845 12.545264,14.821845l2.409084,0c-6.928585,0 -12.545264,-6.635934 -12.545264,-14.821845z" fill="#808080" id="svg_17"/>
   </g>
  </g>
 </g>
</svg>