<?xml version="1.0"?>
<svg width="240" height="60" xmlns="http://www.w3.org/2000/svg" xmlns:svg="http://www.w3.org/2000/svg">
  <title>Lenovo</title>
  <g class="layer">
  <title>Layer 1</title>
  <path d="m101.487405,14.685145c8.669409,0 14.574743,5.827323 14.574743,13.857992l0,20.675016c0,0.535726 -0.446453,0.970133 -0.997033,0.970133l-7.86052,0c-0.550581,0 -0.997033,-0.434408 -0.997033,-0.970133l0,-18.898685c0,-4.617591 -4.219181,-7.377101 -8.296248,-7.377101c-5.275652,0 -8.125532,3.800957 -8.125532,7.377101l0,18.898685c0,0.535726 -0.446453,0.970133 -0.997033,0.970133l-7.858286,0c-0.550581,0 -0.997033,-0.434408 -0.997033,-0.970133l0,-32.977141c0,-0.535726 0.446453,-0.970133 0.997033,-0.970133l7.860074,0c0.550581,0 0.997033,0.434408 0.997033,0.970568l-0.001788,4.032728l0.001788,-0.001739l-0.001788,0.007392c2.871331,-3.730948 7.570036,-5.594682 11.701624,-5.594682" id="svg_1"/>
  <g id="svg_2">
    <path d="m107.028627,49.355375l0,-19.027898c0,-4.649162 -4.128679,-7.427539 -8.118293,-7.427539c-0.920546,0 -1.761937,0.126529 -2.529423,0.34675c3.077377,0.87388 5.692076,3.382124 5.692076,7.080789l0,19.027898c0,0.539389 0.436876,0.976766 0.975647,0.976766l4.956077,0c-0.539208,0 -0.976084,-0.437378 -0.976084,-0.976766z" fill="#808080" id="svg_3"/>
    <path d="m81.318075,49.355375l0,-33.202611c0,-0.539389 0.436876,-0.976766 0.975647,-0.976766l-4.956077,0c-0.538771,0 -0.975647,0.437378 -0.975647,0.976766l0,33.202611c0,0.539389 0.436876,0.976766 0.975647,0.976766l4.956077,0c-0.538771,0 -0.975647,-0.437378 -0.975647,-0.976766z" fill="#808080" id="svg_4"/>
  </g>
  <path d="m189.095522,15.179001l8.801162,0c0.688756,0 1.156746,0.696859 0.894776,1.331467l-13.53311,32.772675c-0.149202,0.361398 -0.502688,0.597431 -0.894776,0.597431l-9.183708,0c-0.392088,0 -0.745575,-0.236033 -0.894776,-0.597431l-13.53311,-32.772675c-0.26197,-0.634608 0.20602,-1.331467 0.894776,-1.331467l8.803331,0c0.406835,0 0.769863,0.253325 0.909089,0.634176l7.504756,20.524908c0.309246,0.845568 1.508932,0.845568 1.818178,0l7.504756,-20.524908c0.138792,-0.380851 0.501821,-0.634176 0.908655,-0.634176z" id="svg_5"/>
  <path d="m175.171592,49.283141l-12.78208,-32.772673c-0.247432,-0.634608 0.194587,-1.331467 0.84512,-1.331467l-4.642629,0c-0.650533,0 -1.092552,0.696859 -0.84512,1.331467l12.78208,32.772673c0.140922,0.361398 0.474791,0.597431 0.84512,0.597431l4.642629,0c-0.370329,0 -0.704198,-0.236033 -0.84512,-0.597431z" fill="#808080" id="svg_6"/>
  <path d="m74.326614,29.68216c-0.594208,-3.213598 -1.945758,-6.080604 -3.952796,-8.296145c-3.130371,-3.450677 -7.763168,-5.276302 -13.404344,-5.276302c-10.246503,0 -17.972903,7.174936 -17.972903,16.651661c0,9.722628 7.744573,16.650056 18.999877,16.650056c5.820369,0 11.761185,-2.416517 15.013271,-5.394641c0.418397,-0.383097 0.388391,-1.025736 -0.072691,-1.362299l-4.504742,-3.287008c-0.327533,-0.239084 -0.783544,-0.24791 -1.119952,-0.019656c-3.582155,2.429754 -5.775993,3.024657 -9.178111,3.024657c-2.505311,0 -4.587576,-0.574845 -6.225242,-1.613819c-0.62506,-0.396736 -0.527857,-1.298115 0.166936,-1.571699l21.680154,-8.536834c0.40276,-0.158855 0.646191,-0.560404 0.570542,-0.967971zm-10.927772,-1.648719l-14.120268,5.560315c-0.610691,0.240288 -1.28562,-0.176505 -1.306329,-0.8035c-0.090019,-2.68689 0.743817,-4.833835 1.998586,-6.433213c1.586951,-2.022589 4.114661,-3.209988 7.167692,-3.209988c2.952447,0 5.278565,1.407228 6.692663,3.573027c0.309783,0.474558 0.11115,1.099547 -0.432344,1.313359z" id="svg_7"/>
  <path d="m41.366149,32.904237c0,-8.825317 7.190487,-15.666122 17.094643,-16.664245c-0.877654,-0.083345 -1.778367,-0.130278 -2.708135,-0.130278c-11.181666,0 -19.613227,7.236493 -19.613227,16.794523c0,9.806043 8.451393,16.792904 20.73393,16.792904c0.833379,0 1.668602,-0.0441 2.499214,-0.123804c-10.786883,-0.958878 -18.006425,-7.607907 -18.006425,-16.6691z" fill="#808080" id="svg_8"/>
  <path d="m36.18129,42.842273l0,6.186863c0,0.482877 -0.418036,0.874431 -0.933572,0.874431l-28.457002,0c-0.515536,0 -0.933572,-0.391554 -0.933572,-0.874431l0,-39.136564c0,-0.482877 0.418036,-0.874431 0.933572,-0.874431l7.485315,0c0.515536,0 0.933572,0.391554 0.933572,0.874431l0,31.201231c0,0.482877 0.418036,0.874431 0.933572,0.874431l19.104543,0c0.515536,-0.000392 0.933572,0.391162 0.933572,0.874039z" id="svg_9"/>
  <path d="m6.820814,48.76175l0,-38.316079c0,-0.472754 0.58866,-0.856099 1.314614,-0.856099l-6.677957,0c-0.725955,0 -1.314614,0.383345 -1.314614,0.856099l0,38.316079c0,0.472754 0.58866,0.856099 1.314614,0.856099l6.677957,0c-0.725955,-0.000384 -1.314614,-0.383345 -1.314614,-0.856099z" fill="#808080" id="svg_10"/>
  <path d="m219.132328,14.823998c-11.781871,0 -21.013754,7.718979 -21.013754,17.572428c0,9.966079 9.1688,17.572428 20.870605,17.572428c11.781871,0 21.011813,-7.720673 21.011813,-17.572428c-0.000485,-9.965655 -9.166859,-17.572428 -20.868664,-17.572428zm0,27.144724c-5.861335,0 -10.457139,-4.205425 -10.457139,-9.572296c0,-5.620924 4.338621,-9.572296 10.31399,-9.572296c5.863762,0 10.457624,4.205425 10.457624,9.572296c-0.000485,5.512528 -4.337165,9.572296 -10.314475,9.572296z" id="svg_11"/>
  <g id="svg_12">
    <path d="m218.742252,41.643961c0.842298,0.20536 1.724795,0.324765 2.644654,0.324765c5.825616,0 10.052238,-4.060192 10.052238,-9.572297c0,-5.366871 -4.477278,-9.572297 -10.191754,-9.572297c-0.959113,0 -1.869513,0.116864 -2.730728,0.320954c4.398298,1.064906 7.562707,4.742748 7.562707,9.25092c0.000473,4.61064 -2.96152,8.194906 -7.337117,9.247956z" fill="#808080" id="svg_13"/>
    <path d="m200.906446,32.396852c0,-9.072236 7.629391,-16.329685 17.801282,-17.424654c-0.875876,-0.094423 -1.769251,-0.148198 -2.680124,-0.148198c-11.482867,0 -20.48046,7.71898 -20.48046,17.572428c0,9.966079 8.936111,17.572428 20.340944,17.572428c0.9104,0 1.803302,-0.053775 2.679178,-0.148198c-10.093383,-1.086924 -17.66082,-8.254185 -17.66082,-17.423807z" fill="#808080" id="svg_14"/>
  </g>
  <path d="m139.149097,14.966856c-10.538092,0 -18.79152,7.71898 -18.79152,17.572429c0,9.96608 8.197017,17.572429 18.66134,17.572429c10.535922,0 18.79152,-7.720674 18.79152,-17.572429c0,-9.965656 -8.199187,-17.572429 -18.66134,-17.572429zm0,27.144727c-5.243661,0 -9.351282,-4.205426 -9.351282,-9.572297c0,-5.620925 3.87807,-9.572297 9.221536,-9.572297c5.243661,0 9.351282,4.205426 9.351282,9.572297c-0.000434,5.512529 -3.878504,9.572297 -9.221536,9.572297z" id="svg_15"/>
  <g id="svg_16">
    <path d="m121.997815,32.611137c0,-9.109114 6.807863,-16.396065 15.886984,-17.495485c-0.781708,-0.094807 -1.57861,-0.1488 -2.391553,-0.1488c-10.249994,0 -18.278537,7.750357 -18.278537,17.64386c0,10.006591 7.973249,17.64386 18.15191,17.64386c0.81252,0 1.609423,-0.053993 2.391131,-0.1488c-9.007788,-1.091342 -15.759935,-8.287738 -15.759935,-17.494634z" fill="#808080" id="svg_17"/>
    <path d="m137.915612,41.895835c0.751739,0.206194 1.539778,0.326085 2.361162,0.326085c5.197596,0 8.9698,-4.076696 8.9698,-9.611208c0,-5.388688 -3.995911,-9.611208 -9.096004,-9.611208c-0.855995,0 -1.668515,0.117339 -2.436716,0.322258c8.963891,2.442447 8.95165,16.2039 0.201758,18.574073z" fill="#808080" id="svg_18"/>
  </g>
  <g id="svg_19"/>
  <g id="svg_20"/>
  <g id="svg_21"/>
  <g id="svg_22"/>
  <g id="svg_23"/>
  <g id="svg_24"/>
  <g id="svg_25"/>
  <g id="svg_26"/>
  <g id="svg_27"/>
  <g id="svg_28"/>
  <g id="svg_29"/>
  <g id="svg_30"/>
  <g id="svg_31"/>
  <g id="svg_32"/>
  <g id="svg_33"/>
  </g>
</svg>