<svg id="svg" xmlns="http://www.w3.org/2000/svg" xmlns:xlink="http://www.w3.org/1999/xlink" viewBox="0, 0, 400,400"><g id="svgg"><path id="path0" d="M189.388 0.271 C 86.262 7.497,7.135 85.745,0.418 187.143 C -7.478 306.348,92.655 407.083,211.633 399.626 C 358.446 390.425,445.528 232.942,375.224 103.778 C 338.978 37.183,263.395 -4.914,189.388 0.271 M223.169 89.592 C 235.599 114.735,245.894 135.422,246.047 135.563 C 246.201 135.704,268.827 139.059,296.327 143.019 C 323.827 146.979,346.950 150.356,347.711 150.523 L 349.096 150.826 311.901 187.148 C 291.443 207.125,274.704 223.745,274.703 224.082 C 274.702 224.418,278.630 247.469,283.432 275.306 C 288.234 303.143,292.129 325.956,292.087 326.001 C 292.045 326.047,271.277 315.256,245.937 302.021 L 199.862 277.958 180.645 288.032 C 170.076 293.573,149.412 304.409,134.725 312.112 C 120.039 319.815,107.987 326.073,107.943 326.018 C 107.900 325.963,111.779 303.235,116.564 275.510 C 121.350 247.786,125.273 224.735,125.282 224.286 C 125.294 223.730,113.443 211.892,88.146 187.191 C 67.711 167.238,51.056 150.849,51.134 150.771 C 51.212 150.693,74.223 147.305,102.270 143.241 C 131.230 139.046,153.457 135.647,153.709 135.376 C 153.954 135.113,164.419 114.102,176.965 88.685 C 194.964 52.222,199.860 42.621,200.173 43.175 C 200.391 43.561,210.740 64.449,223.169 89.592 " stroke="none" fill-rule="evenodd"></path></g></svg>