<?xml version="1.0"?>
<svg width="150" height="60" xmlns="http://www.w3.org/2000/svg" xmlns:svg="http://www.w3.org/2000/svg">
 <g class="layer">
  <title>Layer 1</title>
  <g id="svg_1">
   <path d="m19.766374,10.593002c-9.261672,0 -16.766374,6.598352 -16.766374,14.725404c0,8.144994 7.504702,14.73572 16.766374,14.73572c9.252848,0 16.760396,-6.590726 16.760396,-14.73572c-0.000285,-8.127052 -7.507548,-14.725404 -16.760396,-14.725404l0,0zm-1.700037,25.311474c-3.168924,0 -11.294771,-2.2464 -11.294771,-10.804072c0,-5.977541 5.058265,-10.803175 11.294771,-10.803175s11.288508,4.825633 11.288508,10.803175c0,5.95915 -5.052002,10.804072 -11.288508,10.804072l0,0z" id="svg_2"/>
   <path d="m57.565156,10.593002c-2.717156,0 -5.280021,0.571468 -7.549964,1.578491c-0.105042,0.04665 -0.177633,0.214413 -0.177633,0.4055l0,2.816971c0,0.281249 0.152867,0.47727 0.304879,0.391595c1.679256,-0.944672 3.634641,-1.488778 5.72268,-1.488778c6.236221,0 11.288508,4.825633 11.288508,10.803175c0,5.95915 -5.052287,10.804072 -11.288508,10.804072c-4.240983,0 -7.936828,-2.241466 -9.868015,-5.548716c-0.046686,-0.079844 -0.071452,-0.189293 -0.071452,-0.303677l0,-18.172156c0,-0.229215 -0.105327,-0.41492 -0.235136,-0.41492l-5.449399,0c-0.129809,0 -0.235136,0.185705 -0.235136,0.41492l0,38.3606c0,0.229215 0.105327,0.41492 0.235136,0.41492l5.449399,0c0.129809,0 0.235136,-0.185705 0.235136,-0.41492l0,-13.671282c0,-0.302331 0.174217,-0.499698 0.330215,-0.374101c2.981328,2.395323 6.94903,3.858982 11.309004,3.858982c9.253132,0 16.760111,-6.590726 16.760111,-14.73572c0.000285,-8.126603 -7.506694,-14.724955 -16.759826,-14.724955l0,0z" id="svg_3"/>
   <path d="m95.364222,10.593002c-2.717156,0 -5.280021,0.571468 -7.549964,1.578491c-0.105042,0.04665 -0.177633,0.214413 -0.177633,0.4055l0,2.816971c0,0.281249 0.152867,0.47727 0.304879,0.391595c1.679256,-0.944672 3.634641,-1.488778 5.72268,-1.488778c6.236221,0 11.288508,4.825633 11.288508,10.803175c0,5.95915 -5.052287,10.804072 -11.288508,10.804072c-4.240983,0 -7.936828,-2.241466 -9.868015,-5.548716c-0.046686,-0.079844 -0.071452,-0.189293 -0.071452,-0.303677l0,-18.172156c0,-0.229215 -0.105327,-0.41492 -0.235136,-0.41492l-5.449399,0c-0.129809,0 -0.235136,0.185705 -0.235136,0.41492l0,38.3606c0,0.229215 0.105327,0.41492 0.235136,0.41492l5.449399,0c0.129809,0 0.235136,-0.185705 0.235136,-0.41492l0,-13.671282c0,-0.302331 0.174217,-0.499698 0.330215,-0.374101c2.981328,2.395323 6.94903,3.858982 11.309004,3.858982c9.253132,0 16.760111,-6.590726 16.760111,-14.73572c0.000285,-8.126603 -7.506694,-14.724955 -16.759826,-14.724955l0,0z" id="svg_4"/>
   <path d="m131.989602,10.593002c-9.261388,0 -16.766374,6.598352 -16.766374,14.725404c0,8.144994 7.504702,14.73572 16.766374,14.73572c9.252848,0 16.760396,-6.590726 16.760396,-14.73572c0,-8.127052 -7.507264,-14.725404 -16.760396,-14.725404l0,0zm-1.700037,25.311474c-3.168924,0 -11.294771,-2.2464 -11.294771,-10.804072c0,-5.977541 5.058265,-10.803175 11.294771,-10.803175s11.288508,4.825633 11.288508,10.803175c0.000285,5.95915 -5.052002,10.804072 -11.288508,10.804072l0,0z" id="svg_5"/>
  </g>
  <g id="svg_6">
   <path d="m18.038256,35.649597c0.478748,0.066421 0.913741,0.097625 1.279976,0.097625c6.224576,0 11.266914,-4.814822 11.266914,-10.73695c0,-5.940405 -5.042338,-10.736059 -11.266914,-10.736059c-0.471077,0 -0.934482,0.030759 -1.3905,0.084252c5.567683,0.651724 9.876698,5.161189 9.876698,10.652253c0,5.437125 -4.252191,9.93812 -9.766174,10.63888z" fill="#808080" id="svg_7"/>
   <path d="m4.280716,25.226919c0,-7.66734 6.751341,-13.960799 15.343233,-14.579536c-0.458859,-0.032987 -0.921412,-0.054385 -1.389932,-0.054385c-9.243671,0 -16.734017,6.557359 -16.734017,14.63392c0,8.094393 7.490346,14.644173 16.734017,14.644173c0.46852,0 0.931072,-0.021397 1.389932,-0.054385c-8.591892,-0.618291 -15.343233,-6.905955 -15.343233,-14.589788z" fill="#808080" id="svg_8"/>
   <path d="m55.659322,35.662079c0.454597,0.053047 0.916014,0.085143 1.38567,0.085143c6.224292,0 11.266914,-4.814822 11.266914,-10.73695c0,-5.940405 -5.042622,-10.736059 -11.266914,-10.736059c-0.46994,0 -0.931641,0.031204 -1.386522,0.084697c5.56541,0.653507 9.872437,5.162081 9.872437,10.651807c0.000284,5.471895 -4.306459,9.99518 -9.871584,10.651361z" fill="#808080" id="svg_9"/>
   <path d="m41.215908,49.994655l0,-38.12228c0,-0.227791 0.105126,-0.412342 0.234686,-0.412342l-2.780716,0c-0.12956,0 -0.234686,0.184551 -0.234686,0.412342l0,38.12228c0,0.227791 0.105126,0.412342 0.234686,0.412342l2.780716,0c-0.12956,0 -0.234686,-0.184551 -0.234686,-0.412342z" fill="#808080" id="svg_10"/>
   <path d="m93.386083,35.662079c0.454597,0.053047 0.916014,0.085143 1.38567,0.085143c6.224292,0 11.266914,-4.814822 11.266914,-10.73695c0,-5.940405 -5.042622,-10.736059 -11.266914,-10.736059c-0.46994,0 -0.931641,0.031204 -1.386238,0.084697c5.56541,0.653507 9.872437,5.162081 9.872437,10.651807c-0.000284,5.471895 -4.307027,9.99518 -9.871868,10.651361z" fill="#808080" id="svg_11"/>
   <path d="m78.942669,49.994655l0,-38.12228c0,-0.227791 0.105126,-0.412342 0.234686,-0.412342l-2.780716,0c-0.12956,0 -0.234686,0.184551 -0.234686,0.412342l0,38.12228c0,0.227791 0.105126,0.412342 0.234686,0.412342l2.780716,0c-0.12956,0 -0.234686,-0.184551 -0.234686,-0.412342z" fill="#808080" id="svg_12"/>
   <path d="m130.047096,35.649597c0.478748,0.066421 0.913741,0.097625 1.279976,0.097625c6.224576,0 11.266914,-4.814822 11.266914,-10.73695c0,-5.940405 -5.042338,-10.736059 -11.266914,-10.736059c-0.471077,0 -0.934482,0.030759 -1.3905,0.084252c5.567683,0.651724 9.876698,5.161189 9.876698,10.652253c0,5.437125 -4.252191,9.93812 -9.766174,10.63888z" fill="#808080" id="svg_13"/>
   <path d="m116.289556,25.226919c0,-7.66734 6.751341,-13.960799 15.343233,-14.579536c-0.458859,-0.032987 -0.921412,-0.054385 -1.389932,-0.054385c-9.243671,0 -16.734301,6.557359 -16.734301,14.63392c0,8.094393 7.49063,14.644173 16.734301,14.644173c0.46852,0 0.931072,-0.021397 1.389932,-0.054385c-8.591892,-0.618291 -15.343233,-6.905955 -15.343233,-14.589788z" fill="#808080" id="svg_14"/>
  </g>
  <g id="svg_15"/>
  <g id="svg_16"/>
  <g id="svg_17"/>
  <g id="svg_18"/>
  <g id="svg_19"/>
  <g id="svg_20"/>
  <g id="svg_21"/>
  <g id="svg_22"/>
  <g id="svg_23"/>
  <g id="svg_24"/>
  <g id="svg_25"/>
  <g id="svg_26"/>
  <g id="svg_27"/>
  <g id="svg_28"/>
  <g id="svg_29"/>
 </g>
</svg>