<?xml version="1.0"?>
<svg width="165" height="60" xmlns="http://www.w3.org/2000/svg" xmlns:svg="http://www.w3.org/2000/svg">
 <g class="layer">
  <title>Layer 1</title>
  <path d="m164.84443,11.095435c-0.564259,-0.885364 -1.236103,-1.492322 -4.038771,-1.721964c-0.734468,-0.060869 -3.161713,-0.146293 -7.245124,-0.146293c-10.733124,0 -18.026099,3.506525 -21.759457,10.429656c1.028641,-6.964632 -5.27391,-10.450061 -18.924674,-10.450061c-16.025019,0 -26.032025,6.949415 -30.016843,20.846516c-1.482103,5.168658 -1.633043,9.401458 -0.468557,12.709468l-3.782494,0.273909c-19.757735,1.629277 -23.405988,-0.707599 -19.802374,-13.303285c2.446835,-8.532349 8.506276,-12.372961 18.189885,-12.372961c5.019239,-0.011067 9.906807,0.568224 9.909377,0.568224l0,-0.002075c0.673129,-0.045306 0.970834,-0.799594 0.896006,-1.424883l-0.097308,-0.815849l-0.343308,-2.868095c-0.227052,-1.884165 -1.529633,-3.002629 -3.909027,-3.348474c-2.175143,-0.158051 -3.794055,-0.262842 -6.175697,-0.262842c-10.9332,0 -20.933783,3.300402 -26.594036,13.426406c1.832156,-8.951168 -4.019502,-13.426406 -17.576169,-13.426406c-7.534479,0 -12.937813,0.228604 -16.214497,0.688924c-2.512349,0.336162 -4.043588,1.45843 -4.598213,3.358504l-1.072638,3.684636c-0.19558,0.67509 0.1063,1.009522 0.910458,1.009522l0.024086,-0.004496c0.59541,-0.081274 2.889378,-0.323711 6.806755,-0.661948c8.437229,-0.725929 23.279135,-2.531242 20.983561,5.361294c-0.254671,0.890552 -0.822463,1.442521 -1.691813,1.656253c-7.055325,1.258531 -12.656486,2.167412 -16.799309,2.717306c-11.657712,1.597805 -18.393172,5.505511 -20.207022,11.735914c-2.487942,8.561746 3.746847,12.844348 18.696658,12.844348c7.457082,0 13.716599,-0.470695 18.776303,-1.386148c2.915391,-0.526377 4.392998,-1.331158 4.979096,-3.353662l2.780188,-9.543601c-0.289355,9.53703 5.92231,14.339437 18.645274,14.339437c15.120021,0 16.853905,-1.021281 17.628837,-3.874159l0.564259,-3.008508c2.710498,4.550632 8.658501,6.826294 17.840153,6.826294c9.683288,0 15.330694,-0.292931 16.942221,-0.874297c1.349469,-0.462049 2.183172,-1.212534 2.480234,-2.255949c0,0 -0.074185,0.074703 1.278173,-4.650236c0.202645,-0.703795 -0.10052,-1.040303 -0.895364,-1.01056c-8.455213,0.436457 -12.25248,0.688924 -15.912617,0.688924c-4.401027,0 -7.419829,-0.320599 -9.070856,-0.968021c-2.448441,-1.014018 -3.612927,-3.035484 -3.502131,-6.078577l19.632487,-2.710735c8.799485,-1.21115 14.68679,-4.127318 17.668339,-8.749886l-6.652282,24.948933c-0.283575,1.054828 0.336243,1.592618 1.447419,1.592618l8.12443,0c1.4198,0 1.926895,-0.789219 2.103527,-1.450475l7.181215,-26.930281c0.945142,-3.543877 3.971972,-5.26757 9.252305,-5.26757c4.766174,0 8.358869,0.045306 10.657012,0.136263c0.061339,0.004496 0.119789,0.007263 0.177917,0.007263c0.448645,0 1.259226,-0.175689 1.661947,-1.347413l1.261795,-3.697778c0.239577,-0.713479 0.192047,-1.34603 -0.149334,-1.883128zm-130.969419,32.399478c-2.538684,0.427465 -6.181478,0.642235 -10.940907,0.642235c-8.257386,0 -11.869349,-1.793899 -10.823367,-5.384465c0.751168,-2.575856 2.914107,-4.125243 6.508729,-4.646431l18.784011,-2.717306l-3.528465,12.105968zm86.822337,-21.819033c-0.790027,2.761229 -4.466542,4.650236 -11.018947,5.664946l-15.648953,2.392212l0.396298,-1.379577c1.295194,-4.538874 3.140517,-7.634535 5.51959,-9.276954c2.377788,-1.639652 6.251167,-2.465531 11.61789,-2.465531c7.058536,0.000346 10.101103,1.693259 9.134123,5.064904z" id="svg_1"/>
  <g id="svg_2">
   <path d="m11.699436,18.169513l0.024382,-0.00439c0.539657,-0.071259 2.460315,-0.268487 5.699555,-0.545754c-0.014304,-0.124281 0.002926,-0.2695 0.05299,-0.435996l1.085815,-3.598061c0.561763,-1.85543 2.111488,-2.951329 4.654702,-3.279592c2.578324,-0.349539 6.463852,-0.561627 11.646182,-0.638965c-0.627432,-0.020601 -1.267218,-0.033772 -1.931061,-0.033772c-7.62704,0 -13.096753,0.223232 -16.413692,0.672737c-2.543214,0.328263 -4.093264,1.424162 -4.654702,3.279592l-1.085815,3.598061c-0.197982,0.659228 0.107606,0.98614 0.921643,0.98614z" fill="#808080" id="svg_3"/>
   <path d="m105.544115,51.011697c0.00065,0 0.001625,0 0.002276,0c0.041612,-0.000338 0.082899,-0.000675 0.124186,-0.001351c0.358579,-0.003377 0.710981,-0.007092 1.055582,-0.011145c0.006177,0 0.012679,0 0.018855,0c0.002926,0 0.005852,0 0.008452,0c-8.295109,-0.2695 -13.728087,-2.481899 -16.294382,-6.637534c-0.772099,-1.61396 -3.18365,-5.222491 -0.46391,-14.371305c3.772396,-12.691152 12.877315,-19.447226 27.309556,-20.26991c-0.002601,-0.000338 -0.005202,-0.000338 -0.007802,-0.000338c-7.303896,-0.366763 -15.000181,0.316443 -21.466309,3.85135l0,-0.00743c-2.438533,1.338044 -4.568227,3.019886 -6.393307,5.041135l0,0.005066c-2.928125,3.248522 -4.87089,7.110004 -6.140383,11.380126c-1.500311,5.047214 -1.653105,9.18056 -0.474313,12.410845c0.780552,1.593697 1.824755,5.04485 8.031783,7.142762c0.000325,-0.001013 0.00065,-0.002026 0.000975,-0.002702c4.690787,1.585254 9.718697,1.514333 14.688741,1.47043z" fill="#808080" id="svg_4"/>
   <path d="m121.599227,21.809451c-0.724961,2.444074 -3.859196,4.18603 -9.377673,5.228907l0.007152,0.002702c0,0 15.508304,-2.048943 16.220261,-5.963447c0.325094,-2.804758 -2.803939,-4.213723 -9.397504,-4.213723c-1.261041,0 -2.436583,0.045254 -3.534752,0.132048c4.874466,0.45018 6.902079,2.057048 6.082516,4.813513z" fill="#808080" id="svg_5"/>
   <path d="m130.756487,49.406518l6.734006,-24.36273c1.163513,-4.208995 2.047445,-5.205942 2.047445,-5.205942c3.536377,-6.325819 10.227795,-9.729692 19.974776,-10.141372c-0.001951,0 -0.004226,0 -0.006177,0c-4.802295,-0.103004 -7.181336,-0.049982 -9.587034,0.220868c-0.012354,0.001351 -0.024382,0.003039 -0.036411,0.00439c-3.420968,0.388715 -6.408911,1.198903 -8.960902,2.424487c-0.000325,-0.000675 -0.000975,-0.001351 -0.001625,-0.002364c-3.539303,1.699741 -6.239212,4.199539 -8.080872,7.49399l-2.047445,5.205942l-6.734006,24.36273c-0.287058,1.030044 0.340374,1.555197 1.465201,1.555197c2.534111,0 4.21875,0 6.69857,0c-1.122226,-0.000338 -1.752584,-0.525153 -1.465526,-1.555197z" fill="#808080" id="svg_6"/>
   <path d="m42.609738,30.581033l-5.327647,0.713263l-3.572137,11.821863l6.018148,-0.80411c0,0 0.999015,-0.246197 1.2929,-1.214776l0,0l2.751274,-9.072828c0.236019,-0.778105 -0.383936,-1.547767 -1.162538,-1.443412z" fill="#808080" id="svg_7"/>
   <path d="m7.026204,43.490689l-0.004226,0.000338c-0.15507,-0.8855 -0.350777,-2.063127 0.117359,-4.089105c0.666444,-3.780429 3.162193,-9.223113 11.627652,-12.021117c-10.34613,1.742294 -16.375981,5.439644 -18.085652,11.103871c-2.518506,8.360578 3.792876,12.542556 18.926346,12.542556c1.389128,0 2.73697,-0.015873 4.043849,-0.046943c-10.046067,-0.362373 -15.586001,-2.86082 -16.625328,-7.4896z" fill="#808080" id="svg_8"/>
   <path d="m39.855538,22.754052c-0.2578,0.869627 -0.832567,1.408627 -1.712597,1.617338c0,0 8.24602,-0.262746 8.634508,-3.437644c-0.24187,-2.71121 -3.494765,-4.069855 -9.770062,-4.069855c-1.052656,0 -2.336128,0.037825 -3.843266,0.112123c5.481742,0.464702 7.71254,2.390715 6.691418,5.778039z" fill="#808080" id="svg_9"/>
   <path d="m53.167829,37.079765c1.861491,-17.295954 11.429994,-26.383979 28.103111,-27.354922c-1.166439,-0.059776 -2.315973,-0.09186 -3.626753,-0.09186c-6.115351,0 -12.474523,0.991881 -17.858411,4.057697l-0.000325,-0.002364c-3.790926,2.157688 -6.813004,5.174534 -9.062007,9.055604l-4.254511,14.335845c-0.133289,4.237701 1.101095,7.514591 3.694373,9.831345c-0.000325,0.000338 -0.000325,0.000338 -0.000325,0.000675c0.300387,0.273215 0.818913,0.68557 1.301028,1.00843c0.000325,-0.001013 0.00065,-0.002364 0.000975,-0.003715c3.143338,2.106017 7.76618,3.16578 13.87828,3.16578c1.56663,0 3.107577,-0.015535 4.573103,-0.047281c-11.442673,-0.501851 -17.024544,-5.17082 -16.748539,-13.955235z" fill="#808080" id="svg_10"/>
  </g>
 </g>
</svg>