<?xml version="1.0"?>
<svg width="310" height="60" xmlns="http://www.w3.org/2000/svg" xmlns:svg="http://www.w3.org/2000/svg">
 <g class="layer">
  <title>Layer 1</title>
  <g id="svg_64">
   <path d="m42.13662,21.1078l-27.541248,36.470614c-0.25323,0.334935 0.028137,0.776932 0.494402,0.776932l17.959262,0c0.199254,0 0.385301,-0.086435 0.493828,-0.229347l26.529475,-34.936885c0.239449,-0.315291 0.005168,-0.735679 -0.431812,-0.774967l-16.948063,-1.533728c-0.2205,-0.020135 -0.435832,0.067773 -0.555844,0.227383z" id="svg_65"/>
   <path d="m47.007143,15.491987c-0.461098,0 -0.743039,-0.432174 -0.501293,-0.768092c1.635949,-2.268425 6.424358,-8.874801 7.790424,-10.391831c1.584843,-1.857859 3.685909,-2.650015 5.893206,-2.650015l25.671592,0c0.325008,0 0.588574,0.225418 0.588574,0.503385l0,9.139017c0,0.551514 0.889465,0.70523 1.130636,0.193496c0.697101,-1.479215 1.70141,-3.205949 2.973304,-4.329602c2.451914,-2.176588 5.723811,-5.191987 13.194396,-5.595677c0.015504,-0.000982 0.031008,-0.001473 0.046512,-0.001473l54.437075,0c0.325008,0 0.588574,0.225418 0.588574,0.503385l0,12.893041c0,0.277967 -0.263566,0.503385 -0.588574,0.503385l-111.224426,0l0,0.000982z" fill="black" id="svg_66"/>
   <path d="m308.499991,14.954225l0,-12.904337c0,-0.277967 -0.263566,-0.503385 -0.588574,-0.503385l-58.287785,0c-0.015504,0 -0.031008,0.000491 -0.046512,0.001473c-8.435272,0.457221 -14.78613,4.877678 -17.263883,12.716242c-0.013207,0.042726 -0.019523,0.08447 -0.019523,0.12867l0,0.551022c0,0.277967 0.263566,0.503385 0.588574,0.503385l75.028555,0.010804c0.325582,-0.000491 0.589148,-0.225909 0.589148,-0.503876z" id="svg_67"/>
   <path d="m177.562639,15.446805l-15.281106,0c-0.325008,0 -0.588574,-0.225418 -0.588574,-0.503385l0,-12.826251c0,-0.277967 0.263566,-0.503385 0.588574,-0.503385l15.281106,0c0.325008,0 0.588574,0.225418 0.588574,0.503385l0,12.826251c0.000574,0.277967 -0.262992,0.503385 -0.588574,0.503385z" id="svg_68"/>
   <path d="m231.585702,15.446805l-15.266177,0c-0.325008,0 -0.588574,-0.225418 -0.588574,-0.503385l0,-12.826251c0,-0.277967 0.263566,-0.503385 0.588574,-0.503385l15.266177,0c0.325008,0 0.588574,0.225418 0.588574,0.503385l0,12.826251c0,0.277967 -0.263566,0.503385 -0.588574,0.503385z" id="svg_69"/>
   <path d="m231.620155,24.972814l-14.990552,-0.75827c-0.338215,-0.017189 -0.623601,0.212649 -0.623601,0.502894l0,15.514572c0,0 -0.048809,4.622793 -5.329323,4.622793l-27.755432,0c-0.02182,0 -0.040195,-0.000491 -0.062016,-0.002456c-0.411715,-0.037815 -4.672991,-0.528432 -4.672991,-4.577612l0,-17.801168c0,-0.264216 -0.238875,-0.48325 -0.546656,-0.502403l-15.15363,-0.926228c-0.341086,-0.020627 -0.630492,0.210194 -0.630492,0.502403l0,24.017114c0,0.034869 0.00402,0.070228 0.011484,0.104606c2.6638,11.757601 15.221962,12.663203 15.221962,12.663203s1.211027,0.069246 1.472871,0.088399c0.016078,0.000982 0.028137,0.001473 0.044215,0.001473l37.47925,0c0.018949,0 0.035027,-0.000491 0.053402,-0.001964c0.735,-0.05746 16.034481,-1.405549 16.034481,-14.139472l0,-18.804991c0.001148,-0.266671 -0.241746,-0.487178 -0.552973,-0.502894z" fill="black" id="svg_70"/>
   <path d="m70.332478,58.363694l76.325715,0c0.041918,0 0.084984,-0.003438 0.125754,-0.010804c13.348861,-2.2974 14.74536,-12.566946 14.74536,-12.566946c0.596039,-2.895078 0.299168,-5.266635 0.265289,-5.514644c-0.001723,-0.013751 -0.003445,-0.025046 -0.006316,-0.038797c-0.425496,-2.096046 -5.062886,-11.161397 -15.096208,-11.951588c-5.571069,-0.438559 -52.007556,-3.564457 -58.618535,-4.008909c-0.392191,-0.02652 -0.706289,0.27944 -0.617859,0.6075c1.106519,4.09338 3.354585,6.219875 4.873968,7.462867c3.563027,2.895078 9.151322,3.796751 9.581986,3.862559c0.017801,0.002456 0.028711,0.003929 0.046512,0.005402c1.736437,0.136528 41.133003,2.895569 41.133003,2.895569c1.265578,0.056477 3.664663,0.327569 3.635952,2.983968c0,0.320693 -0.346254,2.663275 -3.395929,2.663275l-56.99407,0c-0.325008,0 -0.588574,-0.225418 -0.588574,-0.503385l0,-19.676216c0,-0.264216 -0.238301,-0.48325 -0.546082,-0.502403l-14.827473,-0.918862c-0.341086,-0.021118 -0.631066,0.209703 -0.631066,0.502403l0,34.206609c0,0.276985 0.263566,0.502403 0.588574,0.502403z" id="svg_71"/>
   <path d="m232.328167,45.170095c0.000574,-0.277476 0.264141,-0.502403 0.588574,-0.502403l56.597859,0c1.034742,0 2.547234,-0.500438 2.80391,-0.711123c0.564457,-0.463605 1.010625,-1.261164 1.010625,-2.029256c0,-2.650506 -2.581687,-2.765425 -3.877124,-2.821903c0,0 -39.856515,-2.815027 -41.557925,-2.931911c-0.016652,-0.000982 -0.026988,-0.002456 -0.043641,-0.004911c-0.409418,-0.056968 -5.689358,-0.841758 -9.259275,-3.749605c-1.527996,-1.227768 -3.527999,-2.562107 -5.087577,-6.675131c-0.128051,-0.338373 0.177434,-0.684604 0.592594,-0.663977c6.86421,0.343284 53.301844,2.673097 58.822957,3.110183c10.075814,0.81622 14.794743,9.252462 15.219665,12.059632c0,0 0.432387,2.537061 -0.091301,5.652154c0,0 -2.084988,11.847965 -16.838387,12.581679c-0.01493,0.000491 -0.030434,0.000982 -0.045363,0.000982l-58.279746,0c-0.325582,0 -0.589723,-0.225909 -0.588574,-0.504858l0.03273,-12.809553z" fill="black" id="svg_72"/>
  </g>
  <g id="svg_51">
   <path d="m14.372088,57.594316l29.069593,-35.099927l-11.56473,-0.954358c-0.238199,-0.019782 -0.469593,0.067066 -0.59952,0.223391l-29.674681,35.830894c-0.272846,0.329056 0.030316,0.762811 0.5327,0.762811l12.769338,0c-0.502384,0.000482 -0.805547,-0.433273 -0.5327,-0.762811z" fill="#808080" id="svg_52"/>
   <path d="m248.934654,15.652731c0,-0.044871 0.006187,-0.087813 0.021036,-0.131236c2.800852,-8.391405 9.986428,-12.532104 18.601198,-12.974544c0.016705,-0.000965 0.03341,-0.001447 0.050115,-0.001447l-12.769338,0c-0.016705,0 -0.03341,0.000482 -0.050115,0.001447c-9.088076,0.449195 -15.932129,4.792056 -18.601198,12.493023c-0.01423,0.041976 -0.021036,0.082988 -0.021036,0.126411l0,0.54135c0,0.273087 0.283983,0.494549 0.634167,0.494549l12.135171,0.001447l0,-0.551z" fill="#808080" id="svg_53"/>
   <path d="m172.86494,15.707734l0,-12.601582c0,-0.273087 0.283983,-0.494549 0.634167,-0.494549l-12.769338,0c-0.350184,0 -0.634167,0.221461 -0.634167,0.494549l0,12.601582c0,0.273087 0.283983,0.494549 0.634167,0.494549l12.769338,0c-0.350184,0 -0.634167,-0.221461 -0.634167,-0.494549z" fill="#808080" id="svg_54"/>
   <path d="m231.08765,15.707734l0,-12.601582c0,-0.273087 0.283983,-0.494549 0.634167,-0.494549l-12.769338,0c-0.350184,0 -0.634167,0.221461 -0.634167,0.494549l0,12.601582c0,0.273087 0.283983,0.494549 0.634167,0.494549l12.769338,0c-0.350184,0 -0.634167,-0.221461 -0.634167,-0.494549z" fill="#808080" id="svg_55"/>
   <path d="m231.385245,40.552411l0,-15.17806l-12.09743,-0.558237c-0.364414,-0.016887 -0.671908,0.209399 -0.671908,0.494066l0,15.242231c0,0 -0.052589,4.541645 -5.742149,4.541645l12.769338,0c5.68956,0 5.742149,-4.541645 5.742149,-4.541645z" fill="#808080" id="svg_56"/>
   <path d="m189.454128,58.334933c0,0 -13.530957,-0.889705 -16.401103,-12.440914c-0.008043,-0.033774 -0.012374,-0.068513 -0.012374,-0.10277l0,-23.415069l-12.090006,-0.674034c-0.367507,-0.020264 -0.679332,0.206504 -0.679332,0.493584l0,23.595519c0,0.034257 0.004331,0.068996 0.012374,0.10277c2.870147,11.551209 16.401103,12.440914 16.401103,12.440914s1.304837,0.068031 1.586964,0.086848c0.017324,0.000965 0.030316,0.001447 0.04764,0.001447l12.769338,0c-0.017324,0 -0.030316,-0.000482 -0.04764,-0.001447c-0.282127,-0.018817 -1.586964,-0.086848 -1.586964,-0.086848z" fill="#808080" id="svg_57"/>
   <path d="m73.7926,57.871263l0,-33.416049l-12.089387,-0.683201c-0.367507,-0.020747 -0.679951,0.206022 -0.679951,0.493584l0,33.606149c0,0.273087 0.283983,0.494549 0.634167,0.494549l12.769338,0c-0.350184,-0.000482 -0.634167,-0.221944 -0.634167,-0.495031z" fill="#808080" id="svg_58"/>
   <path d="m248.935891,57.98899l0.035266,-12.585178c0.000619,-0.272605 0.284602,-0.493584 0.634167,-0.493584l-12.769338,0c-0.349565,0 -0.633548,0.220979 -0.634167,0.493584l-0.035266,12.585178c-0.000619,0.27357 0.283364,0.495514 0.634167,0.495514l12.769338,0c-0.350803,0 -0.634786,-0.221944 -0.634167,-0.495514z" fill="#808080" id="svg_59"/>
   <path d="m97.71152,2.545985c-0.016705,0 -0.03341,0.000482 -0.050115,0.001447c-2.300943,0.113384 -4.222005,0.440993 -5.868364,0.89453l0,0.051144c-4.111258,1.131913 -6.462316,3.070062 -8.347493,4.596166c-1.370419,1.103929 -2.452525,2.800352 -3.203626,4.253601c-0.259854,0.502751 -1.2176,0.352215 -1.218219,-0.189617l0.006806,4.093898l13.740696,0c-1.01343,-3.635053 2.631947,-7.441389 2.646796,-7.456829c0.254904,-0.266815 0.51847,-0.520603 0.796885,-0.744959c2.641847,-2.13838 6.167196,-5.100847 14.216476,-5.497451c0.016705,-0.000965 0.03341,-0.001447 0.050115,-0.001447l-12.769956,-0.000482l0,0z" fill="#808080" id="svg_60"/>
   <path d="m44.379011,5.23826c-1.471886,1.490401 -6.631221,7.981291 -8.393895,10.209414c-0.261091,0.329538 0.043309,0.754609 0.540125,0.754609l12.769338,0c-0.496816,0 -0.800597,-0.425071 -0.540125,-0.754609c1.762675,-2.228605 6.922009,-8.719013 8.393276,-10.209414c1.70761,-1.825246 3.971432,-2.603497 6.349712,-2.603497l-12.7681,0c-2.378899,-0.000482 -4.642102,0.778251 -6.350331,2.603497z" fill="#808080" id="svg_61"/>
   <path d="m85.359186,32.800783c3.83903,2.844258 9.860213,3.729621 10.324237,3.794756c0.01918,0.002412 0.030935,0.00386 0.050115,0.005307c0.644685,0.046319 6.106563,0.398534 12.990213,0.840009c-11.986064,-4.303297 -13.971471,-11.709465 -13.971471,-11.709465l0,0c-6.723407,-0.413973 -12.003388,-0.738204 -13.979514,-0.858826c-0.422572,-0.026054 -0.761,0.274052 -0.665721,0.596353c1.192853,4.021042 3.615061,6.110691 5.252139,7.331865z" fill="#808080" id="svg_62"/>
   <path d="m242.949974,32.876533c3.846454,2.856802 9.535396,3.627816 9.976528,3.683784c0.017942,0.002412 0.029079,0.00386 0.047021,0.004825c0.543837,0.034257 4.703972,0.301072 10.287734,0.660524c-10.464682,-4.39111 -12.455657,-10.976568 -12.455657,-10.976568l0,0c-6.068823,-0.280325 -10.796924,-0.495996 -12.699425,-0.583326c-0.44732,-0.020264 -0.776468,0.319889 -0.638498,0.652322c1.681006,4.041307 3.835936,5.352223 5.482296,6.558439z" fill="#808080" id="svg_63"/>
  </g>
  <g id="svg_50"/>
 </g>

</svg>