<?xml version="1.0"?>
<svg width="110" height="60" xmlns="http://www.w3.org/2000/svg" xmlns:svg="http://www.w3.org/2000/svg">
 <g class="layer">
  <title>Layer 1</title>
  <path d="m109.436861,18.390442c-2.124379,-16.127948 -53.378643,-13.600385 -85.603622,4.24403l-2.560923,1.478671c-9.726075,5.870197 -15.442988,12.391285 -14.709514,17.99244c2.137455,16.241285 53.856025,13.506379 85.892908,-4.405296l3.820462,-2.281295c8.779761,-5.616249 13.855337,-11.730332 13.160689,-17.02855z" id="svg_1"/>
  <path d="m6.917811,42.344372c-0.810705,-5.654409 5.508172,-12.237763 16.258356,-18.163504l2.830576,-1.49273c17.696102,-8.949695 42.345014,-14.607044 62.13125,-15.123778c-21.142378,-0.584902 -48.890693,5.469689 -67.979625,15.123778l-2.830576,1.49273c-10.750185,5.926008 -17.069061,12.509096 -16.258356,18.163504c1.069526,7.42248 14.141539,11.319243 32.470685,10.839933c-15.210398,-0.4213 -25.67041,-4.233856 -26.62231,-10.839933z" fill="#808080" id="svg_2"/>
  <g id="svg_3">
   <path d="m95.673378,30.143441l0,1.173437c0,0.192445 0.162889,0.348481 0.363786,0.348481l0.697826,0c0.134088,0 0.242917,0.10425 0.242917,0.232697l0,1.544757c0.006138,0.158976 -0.003777,0.329937 -0.030689,0.466525c-0.05406,0.332199 -0.379839,0.894155 -1.30571,0.894155c-0.922094,0 -1.241971,-0.561956 -1.299572,-0.894155c-0.023371,-0.136588 -0.034466,-0.307323 -0.034466,-0.466525l0,-5.610289c0,-0.200133 0.014872,-0.415644 0.059018,-0.578238c0.062795,-0.299182 0.33829,-0.890536 1.267702,-0.890536c0.97521,0 1.217419,0.620752 1.271479,0.890536c0.038007,0.175484 0.041785,0.472405 0.041785,0.472405l0,0.364763c0,0.173901 0.147072,0.314786 0.328611,0.314786l2.46836,0c0.2271,0 0.411236,-0.176389 0.411236,-0.393935l0,-0.008819c0,0 0.013456,-0.420393 -0.024551,-0.812745c-0.239848,-2.302776 -2.209626,-3.028231 -4.470952,-3.028231c-2.262506,0 -4.19168,0.733822 -4.472133,3.028231c-0.024551,0.211892 -0.063975,0.589997 -0.063975,0.812745l0,5.162533c0,0.222521 0.006138,0.396874 0.049103,0.809126c0.200424,2.142443 2.058305,2.959937 4.193096,3.024839l4.483228,-1.94819c0.147544,-0.313429 0.245986,-0.671408 0.287771,-1.076649c0.034466,-0.412252 0.038007,-0.586605 0.046742,-0.809126l0,-3.008557c0,-0.156036 -0.131964,-0.282448 -0.294853,-0.282448l-3.935071,0c-0.155099,-0.000226 -0.280689,0.12008 -0.280689,0.268427z" fill="#F2F2F2" id="svg_4"/>
   <path d="m20.149721,32.431971c-0.534937,-2.57844 -5.370856,-3.339399 -5.733697,-4.777418c-0.059018,-0.246266 -0.045562,-0.507683 -0.012276,-0.64314c0.089707,-0.392126 0.364022,-0.828122 1.164539,-0.828122c0.748818,0 1.18791,0.44753 1.18791,1.116676l0,0.49027c0,0.148121 0.125354,0.268427 0.280216,0.268427l2.496925,0c0.221671,0 0.401321,-0.172092 0.401321,-0.384437l0,-0.480094c0,-2.666634 -2.498577,-3.093133 -4.302397,-3.093133c-0.271718,0 -0.537298,0.009498 -0.793199,0.033016l-3.005186,1.262762c-0.328375,0.379236 -0.554531,0.848022 -0.652973,1.431235c-0.093484,0.551101 -0.108357,1.034135 0.025732,1.654887c0.550754,2.507658 5.081904,3.236731 5.741015,4.822194c0.122993,0.296921 0.083569,0.673895 0.023371,0.905914c-0.10458,0.414739 -0.39235,0.829253 -1.244331,0.829253c-0.79438,0 -1.27266,-0.445268 -1.27266,-1.115545l-0.004013,-0.936443c-0.000472,-0.135457 -0.115203,-0.244909 -0.256609,-0.244909l-2.81869,0c-0.189801,0 -0.34372,0.147443 -0.34372,0.329259l0,0.609445c0,2.743296 2.236774,3.56893 4.630772,3.56893c2.304291,0 4.196637,-0.755079 4.504002,-2.809328c0.153682,-1.05788 0.038007,-1.750544 -0.016053,-2.0097z" fill="#F2F2F2" id="svg_5"/>
   <path d="m29.233268,36.511071l-1.607881,-10.522487c-0.015345,-0.099954 -0.165722,-0.10018 -0.181303,-0.000226l-1.653207,10.558217c-0.019594,0.12596 -0.132672,0.218903 -0.26558,0.218903l-2.955611,0c-0.132436,0 -0.23253,-0.115105 -0.208687,-0.239934l2.242204,-11.657706c0.042021,-0.218224 0.240793,-0.376748 0.472378,-0.376748l4.929639,0c0.194051,0 0.360481,0.132744 0.395655,0.31569l2.24244,11.708361c0.025024,0.130256 -0.079556,0.250562 -0.217894,0.250562l-2.885498,0c-0.153682,-0.000452 -0.28423,-0.108547 -0.306656,-0.254633z" fill="#F2F2F2" id="svg_6"/>
   <path d="m46.206786,36.365437l-0.079792,-10.383863c-0.000472,-0.066937 -0.101747,-0.075531 -0.114258,-0.009724l-2.033753,10.540804c-0.028329,0.146312 -0.161473,0.252598 -0.316808,0.252598l-2.564441,0c-0.231822,0 -0.430594,-0.158524 -0.472851,-0.376974l-1.995746,-10.355822c-0.013928,-0.072817 -0.125826,-0.063319 -0.126298,0.010629l-0.0805,10.478842c-0.000944,0.134553 -0.115203,0.243326 -0.255901,0.243326l-2.594894,0c-0.184844,0 -0.333805,-0.145634 -0.329791,-0.322701l0.262511,-11.591221c0.004485,-0.200359 0.175401,-0.360692 0.384796,-0.360692l4.464578,0c0.205382,0 0.380311,0.14292 0.412889,0.337174l1.426814,8.512108c0.022899,0.136136 0.2271,0.136136 0.249999,0l1.4313,-8.538793c0.029981,-0.178876 0.190982,-0.310263 0.380075,-0.310263l4.588988,0c0.152502,0 0.277148,0.116688 0.280453,0.262774l0.270538,11.589186c0.00543,0.231793 -0.189329,0.422654 -0.431302,0.422654l-2.335924,0c-0.231114,-0.000226 -0.41879,-0.17865 -0.420679,-0.40004z" fill="#F2F2F2" id="svg_7"/>
   <path d="m61.558023,34.406166c-0.301227,2.031861 -2.181298,2.777443 -4.459857,2.777443c-2.375584,0 -4.58285,-0.816363 -4.58285,-3.528903l0,-0.681131c0,-0.141563 0.119924,-0.256442 0.267705,-0.256442l2.799804,0c0.174693,0 0.316571,0.135684 0.316571,0.303253l0,0.874707c0,0.66191 0.47828,1.101298 1.270299,1.101298c0.847259,0 1.131253,-0.40886 1.228514,-0.816363c0.059018,-0.226139 0.090887,-0.605375 -0.023371,-0.902296c-0.649196,-1.567824 -5.134784,-2.288529 -5.680817,-4.770408c-0.141407,-0.613742 -0.120396,-1.095419 -0.03187,-1.636118c0.33829,-1.987086 2.170202,-2.701007 4.413115,-2.701007c1.785406,0 4.24574,0.414513 4.24574,3.061247l0,0.51311c0,0.186791 -0.158168,0.338304 -0.353162,0.338304l-2.463403,0c-0.180122,0 -0.326014,-0.139754 -0.326014,-0.312298l0,-0.436675c0,-0.660779 -0.431538,-1.103786 -1.1669,-1.103786c-0.789422,0 -1.063737,0.42876 -1.157221,0.821112c-0.029509,0.13297 -0.042965,0.390995 0.012276,0.63613c0.362605,1.418119 5.142339,2.183827 5.668541,4.730381c0.057129,0.255764 0.165486,0.93893 0.022899,1.988443" fill="#F2F2F2" id="svg_8"/>
   <path d="m73.513376,34.101105c-0.226156,2.293278 -2.100089,3.036598 -4.447581,3.036598c-2.344895,0 -4.220009,-0.74332 -4.441443,-3.036598c-0.014636,-0.122567 -0.03187,-0.584344 -0.028329,-0.810257l0,-8.328483c0,-0.260286 0.220254,-0.471274 0.491972,-0.471274l2.283753,0c0.246222,0 0.445938,0.191314 0.445938,0.427177l0,8.654124c-0.006138,0.156715 0,0.336948 0.03187,0.466525c0.061615,0.303931 0.336874,0.890536 1.216003,0.890536c0.889044,0 1.155805,-0.586605 1.223557,-0.890536c0.028329,-0.129578 0.034466,-0.309811 0.028329,-0.466525l0,-8.705005c0,-0.207822 0.175873,-0.376296 0.392822,-0.376296l2.389985,0c0.242209,0 0.43862,0.188148 0.43862,0.420167l0,8.379591c0.013928,0.225913 -0.005902,0.68769 -0.025496,0.810257" fill="#F2F2F2" id="svg_9"/>
   <path d="m87.376893,36.63703l-3.838754,0c-0.172804,0 -0.325306,-0.108321 -0.375353,-0.266844l-2.927519,-9.255654c-0.034466,-0.109225 -0.202785,-0.083898 -0.200661,0.030077l0.162417,9.097583c0.003777,0.216868 -0.17847,0.394613 -0.404862,0.394613l-2.314914,0c-0.221435,0 -0.401085,-0.172092 -0.401085,-0.384211l0,-11.353548c0,-0.225687 0.190982,-0.408408 0.426345,-0.408408l3.882663,0c0.248819,0 0.467893,0.157393 0.537298,0.386246l2.742675,9.034038c0.021955,0.072138 0.133144,0.056083 0.131964,-0.018996l-0.155335,-8.983609c-0.004013,-0.229531 0.189329,-0.417905 0.428941,-0.417905l2.38786,0c0.17965,0 0.32507,0.139528 0.32507,0.311394l0,11.445587c-0.000708,0.215511 -0.182483,0.389638 -0.406751,0.389638z" fill="#F2F2F2" id="svg_10"/>
  </g>
 </g>
</svg>