<svg id="svg" xmlns="http://www.w3.org/2000/svg" xmlns:xlink="http://www.w3.org/1999/xlink" width="400" height="400" viewBox="0, 0, 400,400"><g id="svgg"><path id="path0" d="M126.746 2.200 C 27.153 17.367,-30.754 129.243,14.489 219.081 C 72.880 335.031,242.354 328.938,289.954 209.178 C 333.379 99.924,242.430 -15.417,126.746 2.200 M184.158 30.820 C 269.848 56.193,303.334 162.809,247.034 231.010 C 178.937 313.502,47.176 279.655,26.527 174.365 C 8.978 84.884,96.765 4.942,184.158 30.820 M129.703 49.582 C 92.429 57.223,60.751 86.428,50.473 122.627 C 43.020 148.873,45.414 160.396,58.320 160.396 C 67.352 160.396,70.626 156.588,72.319 144.111 C 77.665 104.710,111.971 73.267,149.614 73.267 C 161.249 73.267,166.702 59.771,158.416 51.485 C 154.144 47.214,144.406 46.568,129.703 49.582 M71.683 200.396 C 64.146 207.933,70.301 221.782,81.188 221.782 C 92.076 221.782,98.231 207.933,90.693 200.396 C 87.619 197.322,74.757 197.322,71.683 200.396 M262.489 267.767 C 257.905 274.312,258.687 278.482,265.996 286.457 C 272.174 293.199,272.470 294.155,270.731 301.774 C 266.919 318.482,270.434 324.488,303.612 357.965 C 343.573 398.285,356.507 403.712,378.291 389.296 C 405.127 371.536,399.938 349.835,358.980 308.547 C 326.049 275.352,321.815 272.650,304.136 273.560 C 293.070 274.129,291.099 273.628,285.339 268.781 C 277.138 261.880,266.929 261.427,262.489 267.767 M339.036 326.311 C 370.544 357.819,370.748 358.145,363.456 365.437 C 356.165 372.728,355.838 372.524,324.330 341.016 C 292.823 309.508,292.619 309.182,299.910 301.890 C 307.201 294.599,307.528 294.803,339.036 326.311 " stroke="none" fill-rule="evenodd"></path></g></svg>