<?xml version="1.0"?>
<svg width="40" height="40" xmlns="http://www.w3.org/2000/svg" xmlns:svg="http://www.w3.org/2000/svg">C392.453,512,503.956,405.238,511.571,270.692z&quot;/&gt;
 <g class="layer">
  <title>Layer 1</title>
  <rect height="23.059987" id="svg_1" width="38.810023" x="0.539999" y="13.379995"/>
  <path d="m38.856005,36.733004l-14.039301,-10.872045c-2.682438,-2.077272 -6.851051,-2.077272 -9.533489,0l-14.039186,10.872045l37.611976,0z" fill="#808080" id="svg_3"/>
  <path d="m39.256019,13.428081l0,0l0,-0.000167l-0.000237,0l-14.018475,-9.241509c-3.031655,-1.99853 -7.742931,-1.99853 -10.774587,0l-14.018593,9.241509l-0.000118,0l0.000118,0.000083l-0.000118,0.000083l0.000237,0l14.018593,9.241509c3.031655,1.99853 7.742931,1.99853 10.774587,0l14.018593,-9.241509l0,0z" fill="#C0C0C0" id="svg_5"/>
  <path d="m24.31979,17.996872l-4.51979,2.084134l-4.51979,-2.084134c-1.639386,-0.755903 -2.650208,-2.157773 -2.650208,-3.675361l0,-6.657617l7.169998,-2.644898l7.169998,2.644898l0,6.657617c0,1.517669 -1.010823,2.919458 -2.650208,3.675361z" id="svg_7"/>
  <polygon fill="#FFFFFF" id="svg_9" points="18.89040869474411,17.877984642982483 14.610980212688446,14.326400399208069 16.73173636198044,12.566484093666077 18.89040869474411,14.357959389686584 24.26823538541794,9.89499819278717 26.388989627361298,11.654916405677795 "/>
  <rect height="285.360018" id="svg_11" width="247.689996" x="255.469993" y="163.479995"/>
 </g>
</svg>