<?xml version="1.0"?>
<svg width="65" height="40" xmlns="http://www.w3.org/2000/svg" xmlns:svg="http://www.w3.org/2000/svg">
 <g class="layer">
  <title>Layer 1</title>
  <g id="svg_1">
   <path d="m59.073909,29.805054l0,-2.079252l0,-12.480775l0,-12.480775c0,-1.142273 -1.086136,-2.079252 -2.413297,-2.079252l-48.220175,0c-1.326398,0 -2.415585,0.932373 -2.415585,2.079252l0,12.480775l0,12.480775l0,2.079252l-6.024852,6.240387c0,1.719331 1.618526,3.117562 3.613844,3.117562l57.870311,0c1.995318,0 3.613844,-1.398889 3.613844,-3.117562l-6.02409,-6.240387zm-21.698316,8.322271l-9.644035,0c-0.335604,0 -0.603324,-0.230955 -0.603324,-0.520471s0.26772,-0.520471 0.603324,-0.520471l9.644035,0c0.330265,0 0.603324,0.230955 0.603324,0.520471c-0.00839,0.289516 -0.27306,0.520471 -0.603324,0.520471zm-14.765045,-2.079252l1.839719,-1.904884l16.198226,0l1.839719,1.904884l-19.877665,0zm33.06766,-9.92119c0,1.003436 -0.947318,1.815397 -2.102101,1.815397l-42.054216,0c-1.154782,0 -2.102101,-0.819199 -2.102101,-1.815397l0,-21.759107c0,-1.003436 0.947318,-1.815397 2.102101,-1.815397l42.054216,0c1.154782,0 2.102101,0.817225 2.102101,1.815397c0,0 0,21.759107 0,21.759107z" id="svg_2"/>
   <path d="m41.663098,17.479983c-0.512012,-0.177097 -0.968925,-0.41825 -1.382835,-0.718614c-0.29565,-0.2137 -0.548296,-0.466157 -0.752563,-0.741761c-0.149169,-0.198628 -0.286243,-0.402639 -0.38972,-0.612572c-0.103477,-0.209932 -0.165967,-0.43709 -0.235848,-0.655096c-0.050395,-0.162025 -0.083991,-0.323511 -0.096086,-0.489304c-0.016798,-0.362268 -0.009407,-0.718614 0.096086,-1.074961c0.088695,-0.290675 0.199564,-0.570047 0.362843,-0.835961c0.401815,-0.645407 0.988411,-1.146015 1.762476,-1.512051c0.053083,-0.032836 0.112884,-0.05975 0.180078,-0.0942c-0.050395,-0.040372 -0.081976,-0.073207 -0.117588,-0.107658c-0.415926,-0.413943 -0.91853,-0.753065 -1.486312,-1.017364c-0.310432,-0.144261 -0.636991,-0.265914 -0.962206,-0.375725c-0.192172,-0.065671 -0.399127,-0.106043 -0.601379,-0.140493c-0.187469,-0.03445 -0.38972,-0.047908 -0.579205,-0.067286c-0.502605,-0.047908 -1.000506,0.007536 -1.488328,0.082896c-0.237864,0.03445 -0.461617,0.098507 -0.692761,0.157718c-0.190157,0.04414 -0.374938,0.106043 -0.557703,0.157718c-0.161264,0.04414 -0.324543,0.106043 -0.488494,0.140493c-0.249958,0.055982 -0.507308,0.107658 -0.76197,0.148567c-0.456913,0.079128 -0.909123,0.013457 -1.351254,-0.073207c-0.206955,-0.040372 -0.403831,-0.102275 -0.606082,-0.15395c-0.237864,-0.061903 -0.469008,-0.129189 -0.70956,-0.192707c-0.206955,-0.053829 -0.41391,-0.1195 -0.627584,-0.15395c-0.249958,-0.042525 -0.509996,-0.071054 -0.767346,-0.107658c-0.550984,-0.069439 -1.093904,0 -1.630106,0.115732c-0.276836,0.057597 -0.545608,0.156104 -0.807662,0.248689c-0.423317,0.142646 -0.800942,0.352579 -1.15169,0.581889c-0.473712,0.29875 -0.872839,0.658864 -1.216868,1.053968c-0.23316,0.262146 -0.430708,0.531828 -0.557703,0.835961c-0.10079,0.225543 -0.192172,0.454853 -0.27146,0.687932c-0.059802,0.185171 -0.117588,0.368189 -0.149169,0.55659c-0.0383,0.208317 -0.055098,0.422018 -0.067193,0.63195c-0.014111,0.256225 -0.019486,0.51245 -0.009407,0.762754c0.012095,0.240615 0.040988,0.481768 0.071897,0.718614c0.033597,0.225543 0.074584,0.450547 0.124979,0.678243c0.0383,0.162025 0.091383,0.319743 0.144465,0.479615c0.074584,0.230926 0.146481,0.464542 0.240551,0.689547c0.108181,0.259993 0.228457,0.518371 0.360827,0.766522c0.178062,0.335353 0.362843,0.668554 0.574501,0.992065c0.368218,0.55659 0.798254,1.090571 1.279357,1.594947c0.322527,0.339121 0.66118,0.662632 1.070387,0.939851c0.471024,0.327279 0.990427,0.5722 1.620699,0.662632c0.545608,0.07536 1.050901,-0.01561 1.546114,-0.165793c0.249958,-0.079128 0.49051,-0.165793 0.738453,-0.248689c0.41391,-0.142646 0.851337,-0.229311 1.300859,-0.263761c0.545608,-0.040372 1.077106,-0.030682 1.601884,0.0942c0.290946,0.067286 0.577189,0.15395 0.856041,0.248689c0.399127,0.130804 0.78616,0.279371 1.221571,0.335353c0.596675,0.07536 1.130189,-0.03445 1.6422,-0.259993c0.459601,-0.200243 0.853353,-0.469925 1.197382,-0.7859c0.336638,-0.312207 0.651773,-0.639486 0.952127,-0.974839c0.305729,-0.339121 0.596675,-0.683626 0.851337,-1.045893c0.310432,-0.443011 0.577189,-0.911321 0.863432,-1.36779c0.033597,-0.052214 0.007391,-0.088818 -0.050395,-0.113579c-0.036284,-0.004845 -0.067865,-0.004845 -0.09407,-0.012381z" id="svg_3"/>
   <path d="m33.528025,9.25141c0.370234,-0.096354 0.718967,-0.235232 1.050901,-0.406407c0.46632,-0.244921 0.865448,-0.546901 1.195366,-0.911321c0.344029,-0.369804 0.603394,-0.778364 0.774065,-1.219222c0.124979,-0.323511 0.202251,-0.651328 0.173358,-1.022747c0,-0.073207 0.004704,-0.177097 0,-0.281525c-0.004704,-0.1195 -0.031581,-0.140493 -0.173358,-0.1195c-0.305729,0.052214 -0.620193,0.0942 -0.916514,0.183018c-0.344029,0.107658 -0.673275,0.236847 -0.985723,0.387029c-0.72367,0.342889 -1.284061,0.812815 -1.70469,1.393089c-0.196876,0.27345 -0.35142,0.552822 -0.464305,0.849418c-0.050395,0.140493 -0.096086,0.290675 -0.120276,0.441396c-0.040988,0.244921 -0.045691,0.49684 -0.004704,0.745529c0.009407,0.071054 0.036284,0.10389 0.127667,0.102275c0.358139,-0.003768 0.706872,-0.053829 1.048213,-0.141031z" id="svg_4"/>
  </g>
 </g>
</svg>